<svg xmlns="http://www.w3.org/2000/svg" width="61.935" height="123.87" viewBox="0 0 61.935 123.87">
  <g id="bateriaicone" opacity="0.7">
    <g id="Grupo_53" data-name="Grupo 53" transform="translate(12.388 33.033)">
      <g id="Grupo_52" data-name="Grupo 52">
        <path id="Caminho_17" data-name="Caminho 17" d="M216.163,168.69a2.062,2.062,0,0,0-1.866-1.183h-9.7l7.566-28.37a2.065,2.065,0,0,0-3.588-1.846l-28.9,35.1a2.064,2.064,0,0,0,1.594,3.375h9.7l-7.566,28.37a2.065,2.065,0,0,0,3.588,1.846l28.9-35.1A2.064,2.064,0,0,0,216.163,168.69Zm-26.326,27.336,5.811-21.795a2.064,2.064,0,0,0-1.994-2.6h-8.012l20.087-24.392-5.811,21.795a2.065,2.065,0,0,0,1.994,2.6h8.012Z" transform="translate(-179.203 -136.539)" fill="#dfa7d4"/>
      </g>
    </g>
    <g id="Grupo_55" data-name="Grupo 55" transform="translate(16.516)">
      <g id="Grupo_54" data-name="Grupo 54">
        <path id="Caminho_18" data-name="Caminho 18" d="M223.105,0H198.331a2.065,2.065,0,0,0-2.064,2.064v8.258a2.065,2.065,0,0,0,2.064,2.064h24.774a2.065,2.065,0,0,0,2.064-2.064V2.064A2.065,2.065,0,0,0,223.105,0Zm-2.064,8.258H200.4V4.129h20.645Z" transform="translate(-196.267)" fill="#dfa7d4"/>
      </g>
    </g>
    <g id="Grupo_57" data-name="Grupo 57" transform="translate(0 8.258)">
      <g id="Grupo_56" data-name="Grupo 56">
        <path id="Caminho_19" data-name="Caminho 19" d="M182.026,34.133H135.909A7.918,7.918,0,0,0,128,42.042v99.793a7.92,7.92,0,0,0,7.909,7.909h46.117a7.919,7.919,0,0,0,7.909-7.909V42.042A7.919,7.919,0,0,0,182.026,34.133Zm3.778,107.7a3.783,3.783,0,0,1-3.78,3.78H135.907a3.783,3.783,0,0,1-3.78-3.78V42.042a3.785,3.785,0,0,1,3.78-3.78h46.116a3.783,3.783,0,0,1,3.78,3.78Z" transform="translate(-128 -34.133)" fill="#dfa7d4"/>
      </g>
    </g>
  </g>
</svg>
