<svg xmlns="http://www.w3.org/2000/svg" width="46.434" height="44.5" viewBox="0 0 46.434 44.5">
  <path id="github" d="M23.217.5A23.016,23.016,0,0,0,0,23.315,22.853,22.853,0,0,0,15.875,44.961c1.161.215,1.586-.491,1.586-1.1,0-.542-.019-1.977-.029-3.879-6.458,1.376-7.82-3.061-7.82-3.061a6.082,6.082,0,0,0-2.583-3.337c-2.1-1.414.163-1.385.163-1.385a4.857,4.857,0,0,1,3.556,2.351c2.07,3.488,5.435,2.48,6.762,1.9A4.831,4.831,0,0,1,18.98,33.4C13.824,32.828,8.4,30.866,8.4,22.125A8.716,8.716,0,0,1,10.794,16,7.982,7.982,0,0,1,11,9.965s1.944-.611,6.385,2.339a22.26,22.26,0,0,1,11.609,0c4.411-2.95,6.356-2.339,6.356-2.339A8.2,8.2,0,0,1,35.578,16a8.752,8.752,0,0,1,2.38,6.122c0,8.764-5.427,10.693-10.593,11.254A5.413,5.413,0,0,1,28.932,37.6c0,3.053-.029,5.506-.029,6.247,0,.6.406,1.312,1.6,1.083A22.783,22.783,0,0,0,46.434,23.315,23.02,23.02,0,0,0,23.217.5Z" transform="translate(0 -0.5)" opacity="0.77"/>
</svg>
