<svg id="icone_relogio" data-name="icone relogio" xmlns="http://www.w3.org/2000/svg" width="129" height="129" viewBox="0 0 129 129">
  <g id="Grupo_60" data-name="Grupo 60" transform="translate(0 0)">
    <path id="Caminho_20" data-name="Caminho 20" d="M64.5,129A64.5,64.5,0,0,1,18.891,18.891a64.5,64.5,0,0,1,91.217,91.217A64.079,64.079,0,0,1,64.5,129Zm0-121.441a56.941,56.941,0,0,0-40.264,97.205,56.941,56.941,0,1,0,80.527-80.527A56.568,56.568,0,0,0,64.5,7.559Z" transform="translate(0 0)" fill="#e8c1e0"/>
  </g>
  <g id="Grupo_61" data-name="Grupo 61" transform="translate(60.721 15.126)">
    <path id="Caminho_21" data-name="Caminho 21" d="M241,60.036h7.559V70.122H241Z" transform="translate(-241 -60.036)" fill="#e8c1e0"/>
  </g>
  <g id="Grupo_62" data-name="Grupo 62" transform="translate(89.595 26.923)">
    <path id="Caminho_22" data-name="Caminho 22" d="M0,0H10.086V7.559H0Z" transform="translate(0 7.131) rotate(-45)" fill="#e8c1e0"/>
  </g>
  <g id="Grupo_63" data-name="Grupo 63" transform="translate(103.788 60.721)">
    <path id="Caminho_23" data-name="Caminho 23" d="M411.932,241h10.086v7.559H411.932Z" transform="translate(-411.932 -241)" fill="#e8c1e0"/>
  </g>
  <g id="Grupo_64" data-name="Grupo 64" transform="translate(89.589 89.609)">
    <path id="Caminho_24" data-name="Caminho 24" d="M0,0H7.559V10.086H0Z" transform="translate(0 5.344) rotate(-45)" fill="#e8c1e0"/>
  </g>
  <g id="Grupo_65" data-name="Grupo 65" transform="translate(60.721 103.788)">
    <path id="Caminho_25" data-name="Caminho 25" d="M241,411.932h7.559v10.086H241Z" transform="translate(-241 -411.932)" fill="#e8c1e0"/>
  </g>
  <g id="Grupo_66" data-name="Grupo 66" transform="translate(26.902 89.602)">
    <path id="Caminho_26" data-name="Caminho 26" d="M0,0H10.086V7.559H0Z" transform="translate(0 7.131) rotate(-45)" fill="#e8c1e0"/>
  </g>
  <g id="Grupo_67" data-name="Grupo 67" transform="translate(15.126 60.721)">
    <path id="Caminho_27" data-name="Caminho 27" d="M60.036,241H70.122v7.559H60.036Z" transform="translate(-60.036 -241)" fill="#e8c1e0"/>
  </g>
  <g id="Grupo_68" data-name="Grupo 68" transform="translate(26.909 26.916)">
    <path id="Caminho_28" data-name="Caminho 28" d="M0,0H7.559V10.086H0Z" transform="translate(0 5.344) rotate(-45)" fill="#e8c1e0"/>
  </g>
  <g id="Grupo_69" data-name="Grupo 69" transform="translate(60.721 37.82)">
    <path id="Caminho_29" data-name="Caminho 29" d="M271.459,180.567H241V150.108h7.559v22.9h22.9Z" transform="translate(-241 -150.108)" fill="#e8c1e0"/>
  </g>
</svg>
