<svg xmlns="http://www.w3.org/2000/svg" width="117.001" height="117" viewBox="0 0 117.001 117">
  <g id="icone_flexibilidade" data-name="icone flexibilidade" transform="translate(0 -0.001)">
    <g id="Grupo_70" data-name="Grupo 70" transform="translate(0 0.001)">
      <path id="Caminho_30" data-name="Caminho 30" d="M111.012,46.219,102.8,44.826a46.37,46.37,0,0,0-3.3-7.968l4.839-6.77a7.206,7.206,0,0,0-.782-9.312l-7.283-7.283a7.174,7.174,0,0,0-5.108-2.126,7.1,7.1,0,0,0-4.179,1.344L80.192,17.55a45.888,45.888,0,0,0-8.261-3.4L70.562,6.038A7.22,7.22,0,0,0,63.425,0H53.135A7.22,7.22,0,0,0,46,6.038l-1.418,8.31A45.228,45.228,0,0,0,36.637,17.7l-6.721-4.839a7.219,7.219,0,0,0-9.312.782L13.3,20.923a7.235,7.235,0,0,0-.782,9.312L17.4,37.1a45.293,45.293,0,0,0-3.251,7.992L6.037,46.464A7.22,7.22,0,0,0,0,53.6V63.89a7.22,7.22,0,0,0,6.037,7.137l8.31,1.418A45.228,45.228,0,0,0,17.7,80.388l-4.815,6.7a7.206,7.206,0,0,0,.782,9.312l7.283,7.283a7.174,7.174,0,0,0,5.108,2.126,7.1,7.1,0,0,0,4.179-1.344L37.1,99.574a46.237,46.237,0,0,0,7.723,3.177l1.369,8.212A7.22,7.22,0,0,0,53.331,117H63.645a7.22,7.22,0,0,0,7.137-6.037l1.393-8.212a46.371,46.371,0,0,0,7.968-3.3l6.77,4.839a7.175,7.175,0,0,0,4.2,1.344h0a7.174,7.174,0,0,0,5.108-2.126l7.283-7.283a7.235,7.235,0,0,0,.782-9.312l-4.839-6.795a46.039,46.039,0,0,0,3.3-7.968l8.212-1.369A7.22,7.22,0,0,0,117,63.646V53.356A7.133,7.133,0,0,0,111.012,46.219Zm-.562,17.427a.633.633,0,0,1-.538.635L99.647,65.992a3.281,3.281,0,0,0-2.64,2.42,39.126,39.126,0,0,1-4.253,10.241,3.3,3.3,0,0,0,.147,3.593l6.037,8.506a.666.666,0,0,1-.073.831l-7.283,7.283a.621.621,0,0,1-.464.2.6.6,0,0,1-.367-.122L82.269,92.9a3.3,3.3,0,0,0-3.593-.147,39.126,39.126,0,0,1-10.241,4.253,3.244,3.244,0,0,0-2.42,2.64L64.28,109.913a.633.633,0,0,1-.635.538H53.355a.633.633,0,0,1-.635-.538L51.009,99.648a3.281,3.281,0,0,0-2.42-2.64A40.627,40.627,0,0,1,38.568,92.9a3.383,3.383,0,0,0-1.662-.44A3.219,3.219,0,0,0,35,93.073l-8.554,6.086a.727.727,0,0,1-.367.122.655.655,0,0,1-.464-.2L18.331,91.8a.663.663,0,0,1-.073-.831l6.013-8.432a3.346,3.346,0,0,0,.147-3.617,38.758,38.758,0,0,1-4.3-10.216,3.347,3.347,0,0,0-2.64-2.42L7.137,64.526A.633.633,0,0,1,6.6,63.89V53.6a.633.633,0,0,1,.538-.635l10.192-1.711a3.3,3.3,0,0,0,2.664-2.444,39.087,39.087,0,0,1,4.179-10.265A3.263,3.263,0,0,0,24,34.976l-6.086-8.554a.666.666,0,0,1,.073-.831l7.283-7.283a.621.621,0,0,1,.464-.2.6.6,0,0,1,.367.122l8.432,6.013a3.346,3.346,0,0,0,3.617.147,38.758,38.758,0,0,1,10.216-4.3,3.347,3.347,0,0,0,2.42-2.64l1.76-10.339a.633.633,0,0,1,.635-.538h10.29a.633.633,0,0,1,.635.538L65.82,17.305a3.3,3.3,0,0,0,2.444,2.664,39.671,39.671,0,0,1,10.485,4.3,3.3,3.3,0,0,0,3.593-.147l8.432-6.061a.727.727,0,0,1,.367-.122.655.655,0,0,1,.464.2l7.283,7.283a.663.663,0,0,1,.073.831l-6.037,8.481a3.3,3.3,0,0,0-.147,3.593,39.126,39.126,0,0,1,4.253,10.241,3.244,3.244,0,0,0,2.64,2.42l10.265,1.735a.633.633,0,0,1,.538.635v10.29Z" transform="translate(0 -0.001)" fill="#e8c1e0"/>
      <path id="Caminho_31" data-name="Caminho 31" d="M161.348,136A25.248,25.248,0,1,0,186.6,161.249,25.264,25.264,0,0,0,161.348,136Zm0,43.9A18.649,18.649,0,1,1,180,161.249,18.661,18.661,0,0,1,161.348,179.9Z" transform="translate(-102.836 -102.761)" fill="#e8c1e0"/>
    </g>
  </g>
</svg>
