<svg xmlns="http://www.w3.org/2000/svg" width="37.349" height="37.341" viewBox="0 0 37.349 37.341">
  <path id="instagram-brands" d="M18.6,40.922A9.574,9.574,0,1,0,28.177,50.5,9.559,9.559,0,0,0,18.6,40.922Zm0,15.8A6.224,6.224,0,1,1,24.828,50.5,6.235,6.235,0,0,1,18.6,56.72ZM30.8,40.53A2.233,2.233,0,1,1,28.569,38.3,2.228,2.228,0,0,1,30.8,40.53ZM37.143,42.8c-.142-2.991-.825-5.641-3.016-7.824s-4.833-2.866-7.824-3.016c-3.083-.175-12.323-.175-15.406,0-2.983.142-5.633.825-7.824,3.008S.206,39.8.056,42.788c-.175,3.083-.175,12.323,0,15.406.142,2.991.825,5.641,3.016,7.824s4.833,2.866,7.824,3.016c3.083.175,12.323.175,15.406,0,2.991-.142,5.641-.825,7.824-3.016s2.866-4.833,3.016-7.824c.175-3.083.175-12.315,0-15.4ZM33.16,61.5a6.3,6.3,0,0,1-3.55,3.55c-2.458.975-8.291.75-11.007.75s-8.557.217-11.007-.75a6.3,6.3,0,0,1-3.55-3.55C3.072,59.044,3.3,53.212,3.3,50.5s-.217-8.557.75-11.007a6.3,6.3,0,0,1,3.55-3.55c2.458-.975,8.291-.75,11.007-.75s8.557-.217,11.007.75a6.3,6.3,0,0,1,3.55,3.55c.975,2.458.75,8.291.75,11.007S34.135,59.053,33.16,61.5Z" transform="translate(0.075 -31.825)" opacity="0.71"/>
</svg>
