<svg xmlns="http://www.w3.org/2000/svg" width="183.831" height="37.341" viewBox="0 0 183.831 37.341">
  <g id="redessociaisicones" transform="translate(-598.303 -906)">
    <path id="instagram-brands" d="M18.6,40.922A9.574,9.574,0,1,0,28.177,50.5,9.559,9.559,0,0,0,18.6,40.922Zm0,15.8A6.224,6.224,0,1,1,24.828,50.5,6.235,6.235,0,0,1,18.6,56.72ZM30.8,40.53A2.233,2.233,0,1,1,28.569,38.3,2.228,2.228,0,0,1,30.8,40.53ZM37.143,42.8c-.142-2.991-.825-5.641-3.016-7.824s-4.833-2.866-7.824-3.016c-3.083-.175-12.323-.175-15.406,0-2.983.142-5.633.825-7.824,3.008S.206,39.8.056,42.788c-.175,3.083-.175,12.323,0,15.406.142,2.991.825,5.641,3.016,7.824s4.833,2.866,7.824,3.016c3.083.175,12.323.175,15.406,0,2.991-.142,5.641-.825,7.824-3.016s2.866-4.833,3.016-7.824c.175-3.083.175-12.315,0-15.4ZM33.16,61.5a6.3,6.3,0,0,1-3.55,3.55c-2.458.975-8.291.75-11.007.75s-8.557.217-11.007-.75a6.3,6.3,0,0,1-3.55-3.55C3.072,59.044,3.3,53.212,3.3,50.5s-.217-8.557.75-11.007a6.3,6.3,0,0,1,3.55-3.55c2.458-.975,8.291-.75,11.007-.75s8.557-.217,11.007.75a6.3,6.3,0,0,1,3.55,3.55c.975,2.458.75,8.291.75,11.007S34.135,59.053,33.16,61.5Z" transform="translate(598.378 874.175)" opacity="0.71"/>
    <path id="linkedin-in-brands" d="M7.378,32.968H.544v-22H7.378ZM3.957,7.962A3.976,3.976,0,1,1,7.915,3.967,3.991,3.991,0,0,1,3.957,7.962ZM32.952,32.968H26.133V22.257c0-2.553-.052-5.827-3.553-5.827-3.553,0-4.1,2.774-4.1,5.643v10.9H11.658v-22h6.554v3h.1a7.18,7.18,0,0,1,6.465-3.553c6.916,0,8.187,4.554,8.187,10.469V32.968Z" transform="translate(673.071 906.371)" opacity="0.71"/>
    <path id="youtube-brands" d="M52.62,68.235a4.837,4.837,0,0,0-3.4-3.425c-3-.81-15.038-.81-15.038-.81s-12.037,0-15.038.81a4.837,4.837,0,0,0-3.4,3.425c-.8,3.021-.8,9.325-.8,9.325s0,6.3.8,9.325a4.764,4.764,0,0,0,3.4,3.37c3,.81,15.038.81,15.038.81s12.037,0,15.038-.81a4.764,4.764,0,0,0,3.4-3.37c.8-3.021.8-9.325.8-9.325S53.425,71.256,52.62,68.235ZM30.242,83.283V71.836L40.3,77.56Z" transform="translate(728.709 849.936)" opacity="0.71"/>
  </g>
</svg>
