<svg xmlns="http://www.w3.org/2000/svg" width="38.492" height="27.064" viewBox="0 0 38.492 27.064">
  <path id="youtube-brands" d="M52.62,68.235a4.837,4.837,0,0,0-3.4-3.425c-3-.81-15.038-.81-15.038-.81s-12.037,0-15.038.81a4.837,4.837,0,0,0-3.4,3.425c-.8,3.021-.8,9.325-.8,9.325s0,6.3.8,9.325a4.764,4.764,0,0,0,3.4,3.37c3,.81,15.038.81,15.038.81s12.037,0,15.038-.81a4.764,4.764,0,0,0,3.4-3.37c.8-3.021.8-9.325.8-9.325S53.425,71.256,52.62,68.235ZM30.242,83.283V71.836L40.3,77.56Z" transform="translate(-14.933 -64)" opacity="0.71"/>
</svg>
